<?xml version="1.0" standalone="no"?>
<!DOCTYPE svg PUBLIC "-//W3C//DTD SVG 20010904//EN"
 "http://www.w3.org/TR/2001/REC-SVG-20010904/DTD/svg10.dtd">
<svg version="1.0" xmlns="http://www.w3.org/2000/svg"
 width="397.000000pt" height="139.000000pt" viewBox="0 0 397.000000 139.000000"
 preserveAspectRatio="xMidYMid meet">

<g transform="translate(0.000000,139.000000) scale(0.100000,-0.100000)"
fill="#000000" stroke="none">
<path d="M100 711 c0 -320 1 -581 3 -581 1 0 40 7 87 15 47 8 86 15 88 15 1 0
2 101 2 224 l0 223 73 6 c126 9 203 55 246 146 24 52 26 65 26 201 0 195 -22
251 -119 303 -37 20 -58 22 -223 25 l-183 4 0 -581z m298 418 c44 -15 55 -59
51 -197 -5 -138 -15 -153 -109 -160 l-60 -4 0 186 0 186 44 0 c23 0 57 -5 74
-11z"/>
<path d="M700 754 l0 -537 48 7 c68 8 339 35 392 38 l45 3 3 79 3 79 -118 -7
c-65 -4 -133 -9 -150 -13 l-33 -5 0 161 0 161 53 0 c28 0 82 3 120 7 l67 6 0
68 0 69 -120 0 -120 0 0 140 0 140 150 0 150 0 0 70 0 70 -245 0 -245 0 0
-536z"/>
<path d="M1240 1220 l0 -70 95 0 95 0 0 -436 0 -437 61 7 c34 3 75 6 90 6 l29
0 0 430 0 430 90 0 90 0 0 70 0 70 -275 0 -275 0 0 -70z"/>
<path d="M1860 797 c0 -272 2 -496 4 -498 2 -2 43 -3 90 -1 l86 3 0 210 0 209
115 0 115 0 0 70 0 70 -115 0 -115 0 0 145 0 145 145 0 145 0 0 70 0 70 -235
0 -235 0 0 -493z"/>
<path d="M2410 791 l0 -500 53 -5 c28 -3 102 -8 162 -11 61 -3 143 -8 183 -12
l72 -6 0 81 0 80 -127 7 c-71 3 -135 7 -143 8 -13 2 -15 59 -18 430 l-2 427
-90 0 -90 0 0 -499z"/>
<path d="M2960 771 l0 -519 83 -9 c45 -5 85 -7 90 -5 4 2 7 239 7 528 l0 524
-90 0 -90 0 0 -519z"/>
<path d="M3316 1063 c46 -126 86 -242 90 -260 5 -26 -14 -90 -90 -304 -53
-149 -95 -273 -94 -274 2 -1 40 -6 85 -11 l82 -10 66 206 c37 113 70 209 74
213 7 7 141 -422 141 -450 0 -9 180 -45 189 -37 4 4 -68 250 -136 458 l-55
169 88 251 c48 138 89 257 92 264 3 9 -17 12 -80 12 l-84 0 -65 -189 c-35
-105 -67 -187 -70 -183 -4 4 -21 52 -39 107 -18 55 -46 137 -62 183 l-30 82
-92 0 -93 0 83 -227z"/>
</g>
</svg>
